<svg width="42" height="42" xmlns="http://www.w3.org/2000/svg"><g fill="none" fill-rule="evenodd"><g stroke="#0C3D65" stroke-linecap="round" stroke-linejoin="round" stroke-width="2"><path d="M33.677 25.804a2.18 2.18 0 0 0-3.085 0l-3.599 3.6c-1.42 1.419-6.308-.139-10.284-4.114-3.974-3.976-5.532-8.863-4.112-10.283l3.598-3.6a2.18 2.18 0 0 0 0-3.084L9.511 1.639a2.18 2.18 0 0 0-3.084 0L2.57 5.495c-4.117 4.117.141 15.052 9.512 24.423 9.371 9.37 20.306 13.63 24.423 9.511l3.856-3.856a2.18 2.18 0 0 0 0-3.085l-6.684-6.684M38 38l-9-9M13 13L4 4"/></g></g></svg>