<svg width="513" height="512" xmlns="http://www.w3.org/2000/svg"><path d="M235.793 347.266c-3.906 3.898-10.234 3.898-14.145 0-3.898-3.91-3.898-10.239 0-14.149 3.91-3.898 10.239-3.898 14.145 0a10.013 10.013 0 0 1 0 14.149zm-47.344-237.297C188.45 49.332 237.781 0 298.418 0c60.637 0 109.969 49.332 109.969 109.969 0 60.636-49.332 109.972-109.969 109.972-60.637 0-109.969-49.336-109.969-109.972zm199.946 0c0-49.61-40.364-89.973-89.977-89.973-49.613 0-89.977 40.363-89.977 89.973 0 49.613 40.364 89.976 89.977 89.976 49.613 0 89.977-40.363 89.977-89.976zM115.652 509.043L3.402 395.937c-3.875-3.906-3.867-10.207.016-14.101l47.559-47.7c7.21-7.21 17.234-10.085 26.738-8.284 22.558-41.688 64.594-63.922 112.734-63.922 17.367 0 34.2 3.36 50.063 9.996h111.48c12.274 0 23.633 5.715 31.082 14.883l58.992-60.633c14.27-16.547 39.356-18.574 56.102-4.461 16.852 14.246 18.98 39.527 4.75 56.363-95.945 114.672-89.973 107.637-90.668 108.313-16.895 16.441-39.18 25.496-62.758 25.496H216.59a29.814 29.814 0 0 0-20.817 8.41l-10.425 10.055c3.62 10.597 1.117 22.789-7.118 31.023l-48.468 47.75c-3.926 3.867-10.235 3.824-14.11-.082zm74.793-227.121c-42.722 0-77.07 19.531-95.375 53.871l78.32 78.316 8.497-8.199c9.351-9.035 21.68-14.015 34.703-14.015h132.902c18.172 0 35.363-6.918 48.457-19.489l89.668-107.195c7.145-8.457 6.078-21.098-2.344-28.219-8.414-7.094-21.062-6.027-28.187 2.383-.344.41-8.39 8.652-65.457 67.313.226 1.726.351 3.468.351 5.226 0 22.05-17.937 39.988-39.988 39.988h-81.566c-5.52 0-9.996-4.472-9.996-9.996 0-5.52 4.476-9.996 9.996-9.996h81.566c11.028 0 19.996-8.969 19.996-19.996 0-11.152-9.156-19.992-19.996-19.992H238.465a9.979 9.979 0 0 1-4.008-.84c-13.894-6.078-28.7-9.16-44.012-9.16zm-125.32 66.344L24.598 388.91l98.23 98.98 41.32-40.706c3.727-3.727 3.942-10.094-.054-14.09-89.828-89.703-84.86-85.18-86.59-86.235-4.02-2.484-9.082-1.89-12.379 1.407zM286.422 49.988c0-5.523 4.476-10 9.996-10 5.52 0 9.996 4.477 9.996 10v11.645c4.57 1.515 9.649 4.293 14.723 9.203 3.965 3.84 4.07 10.168.23 14.137-3.84 3.965-10.168 4.07-14.137.23-3.53-3.418-7.27-5.226-10.812-5.226-5.512 0-9.996 4.488-9.996 10 0 5.511 4.484 9.996 9.996 9.996 16.539 0 29.992 13.453 29.992 29.992 0 13.031-8.36 24.144-19.996 28.273v11.715c0 5.524-4.476 9.996-9.996 9.996-5.52 0-9.996-4.472-9.996-9.996v-11.668c-6.66-2.234-12.945-6.664-18.29-13.02-3.554-4.226-3.007-10.53 1.22-14.085 4.226-3.551 10.53-3.008 14.086 1.218 4.097 4.88 8.71 7.563 12.98 7.563 5.512 0 9.996-4.484 9.996-9.996 0-5.512-4.484-9.996-9.996-9.996-16.54 0-29.992-13.457-29.992-29.992 0-13.036 8.36-24.149 19.996-28.274V49.988z" fill="#0B3D65" fill-rule="nonzero"/></svg>