<svg width="122" height="17" xmlns="http://www.w3.org/2000/svg"><path d="M11.877 16.773l-.81-3.095H5.719l-.833 3.095H0L5.37.192h5.933l5.438 16.581h-4.864zm-1.733-6.754l-.71-2.71a100.01 100.01 0 0 1-.602-2.339 38.895 38.895 0 0 1-.467-2.056 46.14 46.14 0 0 1-.4 1.898c-.198.88-.64 2.617-1.322 5.206h3.5v.001zm12.26.745v6.01h-4.446V.26h5.392c4.474 0 6.71 1.626 6.71 4.88 0 1.912-.93 3.392-2.792 4.438l4.796 7.195h-5.043l-3.49-6.009h-1.126zm0-3.354h.833c1.554 0 2.331-.69 2.331-2.067 0-1.137-.761-1.706-2.286-1.706h-.877V7.41zm18.172-6.348c-2.064 0-3.689.663-4.875 1.989-1.186 1.324-1.779 3.14-1.779 5.444 0 2.357.56 4.186 1.678 5.489 1.118 1.303 2.717 1.954 4.796 1.954 1.381 0 2.65-.177 3.805-.531v1.017c-1.088.384-2.447.576-4.075.576-2.312 0-4.132-.75-5.46-2.247-1.33-1.5-1.993-3.592-1.993-6.281 0-1.679.317-3.159.951-4.439.634-1.28 1.546-2.269 2.736-2.965C37.55.371 38.933.023 40.51.023c1.606 0 3.043.3 4.312.903l-.462 1.04a8.33 8.33 0 0 0-3.783-.904zm20.108 7.432c0 2.62-.653 4.693-1.959 6.218C57.42 16.237 55.618 17 53.321 17c-2.29 0-4.086-.762-5.393-2.288-1.306-1.524-1.959-3.604-1.959-6.24 0-2.627.66-4.696 1.976-6.207C49.263.755 51.062 0 53.345 0c2.295 0 4.093.759 5.391 2.276 1.3 1.517 1.948 3.59 1.948 6.218zm-13.465 0c0 2.364.526 4.192 1.576 5.484 1.052 1.29 2.56 1.937 4.526 1.937 1.981 0 3.496-.64 4.543-1.92 1.047-1.28 1.571-3.114 1.571-5.501 0-2.38-.524-4.204-1.57-5.472-1.048-1.27-2.555-1.904-4.522-1.904-1.958 0-3.469.64-4.53 1.92-1.063 1.28-1.594 3.099-1.594 5.456zm16.686 8.28V.26h1.148v15.43H72.9v1.084h-8.996v.001zm11.27 0V.26h1.148v15.43h7.847v1.084h-8.996l.001.001zm20.265 0h-8.995V.26h8.995v1.062h-7.847v6.246h7.409v1.062h-7.409v7.082h7.847v1.063zm10.19-15.712c-2.064 0-3.69.663-4.875 1.988-1.186 1.324-1.779 3.14-1.779 5.444 0 2.357.56 4.187 1.678 5.49 1.118 1.303 2.716 1.954 4.795 1.954 1.382 0 2.65-.178 3.806-.532v1.017c-1.089.384-2.447.576-4.076.576-2.311 0-4.131-.75-5.46-2.247-1.328-1.499-1.993-3.592-1.993-6.28 0-1.68.318-3.16.952-4.44.634-1.28 1.546-2.268 2.736-2.965 1.19-.696 2.572-1.044 4.148-1.044 1.606 0 3.043.3 4.312.903l-.462 1.04a8.33 8.33 0 0 0-3.782-.904zm11.022 15.711h-1.16V1.344h-5.347V.26H122v1.084h-5.348v15.43z" fill="#0C3D65" fill-rule="evenodd"/></svg>