<svg width="45" height="38" xmlns="http://www.w3.org/2000/svg"><g fill="none" fill-rule="evenodd"><path d="M44.896.391v6.321c-2.436.658-4.288 1.58-5.555 2.765-1.268 1.186-2.28 2.692-3.037 4.519-.757 1.827-1.136 4.058-1.136 6.691 3.095 0 5.391.89 6.889 2.667 1.498 1.778 2.247 3.67 2.247 5.679 0 2.337-.823 4.313-2.47 5.926-1.645 1.613-3.571 2.42-5.777 2.42-2.864 0-5.317-1.227-7.358-3.68-2.041-2.452-3.062-5.802-3.062-10.049 0-3.753.807-7.267 2.42-10.543a25.314 25.314 0 0 1 6.617-8.395C37.473 2.391 40.88.951 44.896.391zm-24.79 0v6.321c-2.436.658-4.288 1.58-5.555 2.765-1.268 1.186-2.28 2.692-3.037 4.519-.757 1.827-1.136 4.058-1.136 6.691 3.16 0 5.481.89 6.963 2.667 1.481 1.778 2.222 3.67 2.222 5.679 0 2.337-.831 4.313-2.494 5.926-1.662 1.613-3.58 2.42-5.753 2.42-2.831 0-5.276-1.227-7.333-3.68C1.925 31.248.896 27.898.896 23.65c0-3.753.807-7.267 2.42-10.543A25.454 25.454 0 0 1 9.91 4.712C12.69 2.391 16.089.951 20.106.391z" fill="#0C3D65"/></g></svg>