
<svg width="98px" height="98px" viewBox="0 0 98 98" version="1.1" xmlns="http://www.w3.org/2000/svg" xmlns:xlink="http://www.w3.org/1999/xlink">
    <g id="Page-1" stroke="none" stroke-width="1" fill="none" fill-rule="evenodd">
        <path d="M39.969,59.587 C47.303,55.784 54.573,52.016 61.91,48.211 C54.551,44.371 47.283,40.581 39.969,36.764 C39.969,44.398 39.969,51.954 39.969,59.587 Z M48.875,0 C21.883,0 0,21.882 0,48.875 C0,75.868 21.883,97.75 48.875,97.75 C75.867,97.75 97.75,75.868 97.75,48.875 C97.75,21.882 75.867,0 48.875,0 Z M82.176,65.189 C81.33,68.859 78.328,71.566 74.715,71.969 C66.158,72.926 57.498,72.931 48.873,72.926 C40.248,72.931 31.586,72.926 23.027,71.969 C19.414,71.566 16.414,68.859 15.57,65.189 C14.367,59.961 14.367,54.256 14.367,48.875 C14.367,43.494 14.381,37.787 15.584,32.561 C16.428,28.891 19.428,26.183 23.041,25.779 C31.6,24.823 40.262,24.818 48.887,24.823 C57.51,24.818 66.172,24.823 74.728,25.779 C78.343,26.183 81.345,28.89 82.189,32.561 C83.392,37.788 83.382,43.494 83.382,48.875 C83.382,54.256 83.379,59.962 82.176,65.189 Z" id="Combined-Shape" fill="#FFFFFF"></path>
    </g>
</svg>