<svg xmlns="http://www.w3.org/2000/svg" style="position:absolute; width: 0; height: 0"><symbol id="shape-arcollect-logo-blue"><path d="M11.877 16.773l-.81-3.095H5.719l-.833 3.095H0L5.37.192h5.933l5.438 16.581h-4.864zm-1.733-6.754l-.71-2.71a100.01 100.01 0 0 1-.602-2.339 38.895 38.895 0 0 1-.467-2.056 46.14 46.14 0 0 1-.4 1.898c-.198.88-.64 2.617-1.322 5.206h3.5v.001zm12.26.745v6.01h-4.446V.26h5.392c4.474 0 6.71 1.626 6.71 4.88 0 1.912-.93 3.392-2.792 4.438l4.796 7.195h-5.043l-3.49-6.009h-1.126zm0-3.354h.833c1.554 0 2.331-.69 2.331-2.067 0-1.137-.761-1.706-2.286-1.706h-.877V7.41zm18.172-6.348c-2.064 0-3.689.663-4.875 1.989-1.186 1.324-1.779 3.14-1.779 5.444 0 2.357.56 4.186 1.678 5.489 1.118 1.303 2.717 1.954 4.796 1.954 1.381 0 2.65-.177 3.805-.531v1.017c-1.088.384-2.447.576-4.075.576-2.312 0-4.132-.75-5.46-2.247-1.33-1.5-1.993-3.592-1.993-6.281 0-1.679.317-3.159.951-4.439.634-1.28 1.546-2.269 2.736-2.965C37.55.371 38.933.023 40.51.023c1.606 0 3.043.3 4.312.903l-.462 1.04a8.33 8.33 0 0 0-3.783-.904zm20.108 7.432c0 2.62-.653 4.693-1.959 6.218C57.42 16.237 55.618 17 53.321 17c-2.29 0-4.086-.762-5.393-2.288-1.306-1.524-1.959-3.604-1.959-6.24 0-2.627.66-4.696 1.976-6.207C49.263.755 51.062 0 53.345 0c2.295 0 4.093.759 5.391 2.276 1.3 1.517 1.948 3.59 1.948 6.218zm-13.465 0c0 2.364.526 4.192 1.576 5.484 1.052 1.29 2.56 1.937 4.526 1.937 1.981 0 3.496-.64 4.543-1.92 1.047-1.28 1.571-3.114 1.571-5.501 0-2.38-.524-4.204-1.57-5.472-1.048-1.27-2.555-1.904-4.522-1.904-1.958 0-3.469.64-4.53 1.92-1.063 1.28-1.594 3.099-1.594 5.456zm16.686 8.28V.26h1.148v15.43H72.9v1.084h-8.996v.001zm11.27 0V.26h1.148v15.43h7.847v1.084h-8.996l.001.001zm20.265 0h-8.995V.26h8.995v1.062h-7.847v6.246h7.409V8.63h-7.409v7.082h7.847v1.063zm10.19-15.712c-2.064 0-3.69.663-4.875 1.988-1.186 1.324-1.779 3.14-1.779 5.444 0 2.357.56 4.187 1.678 5.49 1.118 1.303 2.716 1.954 4.795 1.954 1.382 0 2.65-.178 3.806-.532v1.017c-1.089.384-2.447.576-4.076.576-2.311 0-4.131-.75-5.46-2.247-1.328-1.499-1.993-3.592-1.993-6.28 0-1.68.318-3.16.952-4.44.634-1.28 1.546-2.268 2.736-2.965 1.19-.696 2.572-1.044 4.148-1.044 1.606 0 3.043.3 4.312.903l-.462 1.04a8.33 8.33 0 0 0-3.782-.904zm11.022 15.711h-1.16V1.344h-5.347V.26H122v1.084h-5.348v15.43z" fill="#0C3D65" fill-rule="evenodd"></path></symbol><symbol id="shape-arcollect-logo"><path d="M11.877 16.773l-.81-3.095H5.719l-.833 3.095H0L5.37.192h5.933l5.438 16.581h-4.864zm-1.733-6.754l-.71-2.71a100.01 100.01 0 0 1-.602-2.339 38.895 38.895 0 0 1-.467-2.056 46.14 46.14 0 0 1-.4 1.898c-.198.88-.64 2.617-1.322 5.206h3.5v.001zm12.26.745v6.01h-4.446V.26h5.392c4.474 0 6.71 1.626 6.71 4.88 0 1.912-.93 3.392-2.792 4.438l4.796 7.195h-5.043l-3.49-6.009h-1.126zm0-3.354h.833c1.554 0 2.331-.69 2.331-2.067 0-1.137-.761-1.706-2.286-1.706h-.877V7.41zm18.172-6.348c-2.064 0-3.689.663-4.875 1.989-1.186 1.324-1.779 3.14-1.779 5.444 0 2.357.56 4.186 1.678 5.489 1.118 1.303 2.717 1.954 4.796 1.954 1.381 0 2.65-.177 3.805-.531v1.017c-1.088.384-2.447.576-4.075.576-2.312 0-4.132-.75-5.46-2.247-1.33-1.5-1.993-3.592-1.993-6.281 0-1.679.317-3.159.951-4.439.634-1.28 1.546-2.269 2.736-2.965C37.55.371 38.933.023 40.51.023c1.606 0 3.043.3 4.312.903l-.462 1.04a8.33 8.33 0 0 0-3.783-.904zm20.108 7.432c0 2.62-.653 4.693-1.959 6.218C57.42 16.237 55.618 17 53.321 17c-2.29 0-4.086-.762-5.393-2.288-1.306-1.524-1.959-3.604-1.959-6.24 0-2.627.66-4.696 1.976-6.207C49.263.755 51.062 0 53.345 0c2.295 0 4.093.759 5.391 2.276 1.3 1.517 1.948 3.59 1.948 6.218zm-13.465 0c0 2.364.526 4.192 1.576 5.484 1.052 1.29 2.56 1.937 4.526 1.937 1.981 0 3.496-.64 4.543-1.92 1.047-1.28 1.571-3.114 1.571-5.501 0-2.38-.524-4.204-1.57-5.472-1.048-1.27-2.555-1.904-4.522-1.904-1.958 0-3.469.64-4.53 1.92-1.063 1.28-1.594 3.099-1.594 5.456zm16.686 8.28V.26h1.148v15.43H72.9v1.084h-8.996v.001zm11.27 0V.26h1.148v15.43h7.847v1.084h-8.996l.001.001zm20.265 0h-8.995V.26h8.995v1.062h-7.847v6.246h7.409V8.63h-7.409v7.082h7.847v1.063zm10.19-15.712c-2.064 0-3.69.663-4.875 1.988-1.186 1.324-1.779 3.14-1.779 5.444 0 2.357.56 4.187 1.678 5.49 1.118 1.303 2.716 1.954 4.795 1.954 1.382 0 2.65-.178 3.806-.532v1.017c-1.089.384-2.447.576-4.076.576-2.311 0-4.131-.75-5.46-2.247-1.328-1.499-1.993-3.592-1.993-6.28 0-1.68.318-3.16.952-4.44.634-1.28 1.546-2.268 2.736-2.965 1.19-.696 2.572-1.044 4.148-1.044 1.606 0 3.043.3 4.312.903l-.462 1.04a8.33 8.33 0 0 0-3.782-.904zm11.022 15.711h-1.16V1.344h-5.347V.26H122v1.084h-5.348v15.43z" fill="#FFF" fill-rule="evenodd"></path></symbol><symbol id="shape-bullet"><path d="M20 10c0 5.523-4.477 10-10 10S0 15.523 0 10 4.477 0 10 0s10 4.477 10 10zM8.843 15.295l7.42-7.42a.645.645 0 0 0 0-.912l-.913-.912a.645.645 0 0 0-.912 0l-6.05 6.05-2.826-2.824a.645.645 0 0 0-.912 0l-.913.912a.645.645 0 0 0 0 .912l4.194 4.194c.252.252.66.252.912 0z"></path></symbol><symbol viewBox="0 0 473 473" id="shape-chat"><path d="M403.581 69.3c-44.7-44.7-104-69.3-167.2-69.3s-122.5 24.6-167.2 69.3c-86.4 86.4-92.4 224.7-14.9 318-7.6 15.3-19.8 33.1-37.9 42-8.7 4.3-13.6 13.6-12.1 23.2s8.9 17.1 18.5 18.6c4.5.7 10.9 1.4 18.7 1.4 20.9 0 51.7-4.9 83.2-27.6 35.1 18.9 73.5 28.1 111.6 28.1 61.2 0 121.8-23.7 167.4-69.3 44.7-44.7 69.3-104 69.3-167.2s-24.7-122.5-69.4-167.2zm-19.1 315.3c-67.5 67.5-172 80.9-254.2 32.6-5.4-3.2-12.1-2.2-16.4 2.1-.4.2-.8.5-1.1.8-27.1 21-53.7 25.4-71.3 25.4h-.1c20.3-14.8 33.1-36.8 40.6-53.9 1.2-2.9 1.4-5.9.7-8.7-.3-2.7-1.4-5.4-3.3-7.6-73.2-82.7-69.4-208.7 8.8-286.9 81.7-81.7 214.6-81.7 296.2 0 81.8 81.7 81.8 214.5.1 296.2z"></path><circle cx="236.381" cy="236.5" r="16.6"></circle><circle cx="321.981" cy="236.5" r="16.6"></circle><circle cx="150.781" cy="236.5" r="16.6"></circle></symbol><symbol id="shape-check"><path d="M3.761 7.119L.94 4.298l-.94.94 3.761 3.761 8.06-8.06-.94-.94z" fill="#0C3D65" fill-rule="nonzero"></path></symbol><symbol viewBox="0 0 49.652 49.652" id="shape-facebook"><path d="M24.826 0C11.137 0 0 11.137 0 24.826c0 13.688 11.137 24.826 24.826 24.826 13.688 0 24.826-11.138 24.826-24.826C49.652 11.137 38.516 0 24.826 0zM31 25.7h-4.039v14.396h-5.985V25.7h-2.845v-5.088h2.845v-3.291c0-2.357 1.12-6.04 6.04-6.04l4.435.017v4.939h-3.219c-.524 0-1.269.262-1.269 1.386v2.99h4.56L31 25.7z" fill="#FFF"></path></symbol><symbol viewBox="0 0 512 512" id="shape-linkedin"><path d="M256 0c141.168 0 256 114.842 256 256 0 141.148-114.852 256-256 256C114.842 512 0 397.148 0 256 0 114.842 114.842 0 256 0zm65.938 199.45c-27.782 0-40.189 15.27-47.131 25.992v-22.278h-52.322c.68 14.747 0 157.422 0 157.422h52.322v-87.948c0-4.693.3-9.413 1.713-12.773 3.791-9.413 12.394-19.153 26.853-19.153 18.931 0 26.501 14.433 26.501 35.613v84.222h52.335v-90.275c-.026-48.321-25.847-70.821-60.27-70.821zm-180.772 3.714v157.422h52.321V203.164h-52.321zm26.513-75.894c-17.885 0-29.599 11.74-29.599 27.193 0 15.1 11.361 27.194 28.907 27.194h.34c18.25 0 29.612-12.093 29.612-27.194-.353-15.44-11.348-27.193-29.26-27.193z" fill="#FFF" fill-rule="nonzero"></path></symbol><symbol id="shape-quote"><path d="M44.896.391v6.321c-2.436.658-4.288 1.58-5.555 2.765-1.268 1.186-2.28 2.692-3.037 4.519-.757 1.827-1.136 4.058-1.136 6.691 3.095 0 5.391.89 6.889 2.667 1.498 1.778 2.247 3.67 2.247 5.679 0 2.337-.823 4.313-2.47 5.926-1.645 1.613-3.571 2.42-5.777 2.42-2.864 0-5.317-1.227-7.358-3.68-2.041-2.452-3.062-5.802-3.062-10.049 0-3.753.807-7.267 2.42-10.543a25.314 25.314 0 0 1 6.617-8.395C37.473 2.391 40.88.951 44.896.391zm-24.79 0v6.321c-2.436.658-4.288 1.58-5.555 2.765-1.268 1.186-2.28 2.692-3.037 4.519-.757 1.827-1.136 4.058-1.136 6.691 3.16 0 5.481.89 6.963 2.667 1.481 1.778 2.222 3.67 2.222 5.679 0 2.337-.831 4.313-2.494 5.926-1.662 1.613-3.58 2.42-5.753 2.42-2.831 0-5.276-1.227-7.333-3.68C1.925 31.248.896 27.898.896 23.65c0-3.753.807-7.267 2.42-10.543A25.454 25.454 0 0 1 9.91 4.712C12.69 2.391 16.089.951 20.106.391z" fill="#0C3D65" fill-rule="evenodd"></path></symbol><symbol viewBox="0 0 49.652 49.652" id="shape-twitter"><path d="M24.826 0C11.137 0 0 11.137 0 24.826c0 13.688 11.137 24.826 24.826 24.826 13.688 0 24.826-11.138 24.826-24.826C49.652 11.137 38.516 0 24.826 0zm11.075 19.144c.011.246.017.494.017.742 0 7.551-5.746 16.255-16.259 16.255-3.227 0-6.231-.943-8.759-2.565.447.053.902.08 1.363.08 2.678 0 5.141-.914 7.097-2.446a5.72 5.72 0 0 1-5.338-3.969 5.76 5.76 0 0 0 2.58-.096 5.715 5.715 0 0 1-4.583-5.603l.001-.072a5.69 5.69 0 0 0 2.587.714 5.71 5.71 0 0 1-2.541-4.755c0-1.048.281-2.03.773-2.874a16.225 16.225 0 0 0 11.777 5.972 5.707 5.707 0 0 1-.147-1.303 5.714 5.714 0 0 1 9.884-3.91 11.406 11.406 0 0 0 3.63-1.387 5.74 5.74 0 0 1-2.516 3.162 11.36 11.36 0 0 0 3.282-.899 11.494 11.494 0 0 1-2.848 2.954z" fill="#FFF"></path></symbol><symbol viewBox="0 0 98 98" id="shape-youtube"><path d="M39.969 59.587L61.91 48.211c-7.359-3.84-14.627-7.63-21.941-11.447v22.823zM48.875 0C21.883 0 0 21.882 0 48.875S21.883 97.75 48.875 97.75 97.75 75.868 97.75 48.875 75.867 0 48.875 0zm33.301 65.189c-.846 3.67-3.848 6.377-7.461 6.78-8.557.957-17.217.962-25.842.957-8.625.005-17.287 0-25.846-.957-3.613-.403-6.613-3.11-7.457-6.78-1.203-5.228-1.203-10.933-1.203-16.314s.014-11.088 1.217-16.314c.844-3.67 3.844-6.378 7.457-6.782 8.559-.956 17.221-.961 25.846-.956 8.623-.005 17.285 0 25.841.956 3.615.404 6.617 3.111 7.461 6.782 1.203 5.227 1.193 10.933 1.193 16.314s-.003 11.087-1.206 16.314z" fill="#FFF" fill-rule="evenodd"></path></symbol></svg>